<!DOCTYPE svg PUBLIC "-//W3C//DTD SVG 20010904//EN" "http://www.w3.org/TR/2001/REC-SVG-20010904/DTD/svg10.dtd">
<svg version="1.0" xmlns="http://www.w3.org/2000/svg" width="400px" height="400px" viewBox="0 0 4000 4000" preserveAspectRatio="xMidYMid meet">
<g id="layer101" fill="#010101" stroke="none">
 <path d="M0 2000 l0 -2000 2000 0 2000 0 0 2000 0 2000 -2000 0 -2000 0 0 -2000z"/>
 </g>
<g id="layer102" fill="#747474" stroke="none">
 <path d="M0 2000 l0 -2000 2000 0 2000 0 0 2000 0 2000 -2000 0 -2000 0 0 -2000z m1843 283 c-188 -2 -498 -2 -690 0 -191 1 -37 2 342 2 380 0 536 -1 348 -2z m467 -248 l0 -135 -25 0 -25 0 0 135 0 135 25 0 25 0 0 -135z m150 46 c0 -101 16 -134 72 -146 26 -6 35 -3 50 15 15 18 18 41 18 121 0 92 1 99 20 99 19 0 20 -7 20 -115 0 -110 -1 -117 -25 -140 -30 -30 -67 -32 -120 -5 -47 24 -45 24 -45 5 0 -8 -9 -15 -20 -15 -19 0 -20 7 -20 135 l0 135 25 0 c25 0 25 -1 25 -89z m404 83 c9 -3 16 -15 16 -25 0 -15 -5 -17 -31 -12 -43 8 -49 -6 -49 -109 l0 -88 30 0 c39 0 41 -27 3 -32 -25 -3 -28 -7 -31 -45 -3 -35 -7 -43 -23 -43 -16 0 -19 7 -19 41 0 32 -4 42 -20 46 -11 3 -20 12 -20 19 0 8 9 14 20 14 19 0 20 7 20 104 0 82 3 108 16 120 16 16 59 21 88 10z m297 -33 c36 -35 39 -43 39 -92 0 -90 -55 -149 -137 -149 -67 0 -127 69 -125 147 1 81 53 132 136 133 43 0 53 -4 87 -39z m-851 -311 c0 -25 -4 -30 -25 -30 -21 0 -25 5 -25 30 0 25 4 30 25 30 21 0 25 -5 25 -30z"/>
 <path d="M3006 2099 c-61 -72 -8 -181 79 -165 106 20 93 196 -15 196 -30 0 -44 -6 -64 -31z"/>
 </g>
<g id="layer103" fill="#b8b8b8" stroke="none">
 <path d="M0 2000 l0 -2000 2000 0 2000 0 0 2000 0 2000 -2000 0 -2000 0 0 -2000z m2180 280 c0 -7 -235 -10 -685 -10 -450 0 -685 3 -685 10 0 7 235 10 685 10 450 0 685 -3 685 -10z m688 -115 c15 -4 21 -12 18 -22 -3 -8 -6 -19 -6 -24 0 -5 -11 -4 -26 1 -14 6 -30 8 -35 4 -5 -3 -9 -45 -9 -94 l0 -89 28 -3 c19 -2 28 -9 30 -25 3 -20 -1 -23 -27 -23 -28 0 -30 -3 -33 -42 -3 -38 -6 -43 -28 -43 -22 0 -25 5 -28 43 -2 28 -8 42 -18 42 -8 0 -14 10 -14 25 0 16 6 25 15 25 12 0 15 16 15 84 0 97 10 133 42 146 23 8 31 8 76 -5z m258 -1 c93 -44 110 -166 34 -239 -23 -22 -42 -29 -83 -33 -47 -4 -57 -1 -85 23 -47 40 -65 80 -59 133 6 53 31 91 78 114 42 22 71 23 115 2z m-816 -134 l0 -140 -25 0 -25 0 0 140 0 140 25 0 25 0 0 -140z m150 51 c0 -82 2 -90 27 -115 21 -21 35 -26 62 -24 43 4 49 19 50 141 1 86 1 87 26 87 l25 0 0 -101 c0 -152 -26 -190 -117 -176 -19 4 -44 14 -54 23 -18 16 -19 16 -19 -4 0 -17 -6 -22 -25 -22 l-25 0 0 140 0 140 25 0 c25 0 25 -1 25 -89z m-150 -266 c0 -31 -3 -35 -25 -35 -22 0 -25 4 -25 35 0 31 3 35 25 35 22 0 25 -4 25 -35z"/>
 <path d="M3027 2119 c-9 -5 -24 -24 -33 -41 -46 -89 59 -185 131 -118 32 30 40 70 21 113 -21 52 -74 72 -119 46z"/>
 </g>
<g id="layer104" fill="#ffffff" stroke="none">
 <path d="M0 2000 l0 -2000 2000 0 2000 0 0 2000 0 2000 -2000 0 -2000 0 0 -2000z m2180 280 c0 -7 -235 -10 -685 -10 -450 0 -685 3 -685 10 0 7 235 10 685 10 450 0 685 -3 685 -10z m-843 -111 c55 -20 97 -79 57 -79 -9 0 -27 9 -41 20 -36 28 -88 26 -118 -5 -48 -47 -37 -55 85 -55 l110 0 0 -26 c0 -41 -29 -92 -67 -115 -88 -55 -213 17 -213 123 0 12 10 42 21 66 16 33 32 49 63 63 48 22 64 23 103 8z m530 0 c55 -20 97 -79 57 -79 -9 0 -27 9 -41 20 -36 28 -88 26 -118 -5 -48 -47 -37 -55 85 -55 l110 0 0 -26 c0 -14 -8 -42 -17 -61 -42 -89 -168 -98 -231 -18 -54 68 -28 175 51 214 48 24 64 25 104 10z m443 -134 l0 -145 -25 0 -25 0 0 145 0 145 25 0 25 0 0 -145z m150 54 c0 -87 1 -92 29 -120 31 -31 71 -38 89 -16 6 7 13 60 14 118 l3 104 28 3 27 3 0 -111 c0 -123 -13 -164 -56 -181 -28 -10 -98 4 -109 21 -9 15 -25 12 -25 -5 0 -9 -9 -15 -25 -15 l-25 0 0 145 0 145 25 0 c25 0 25 -1 25 -91z m405 79 c26 -12 29 -17 19 -41 -4 -11 -15 -14 -40 -10 l-34 6 0 -92 0 -91 30 0 c25 0 30 -4 30 -25 0 -21 -5 -25 -30 -25 -29 0 -30 -2 -30 -45 0 -43 -1 -45 -30 -45 -29 0 -30 2 -30 45 0 33 -4 45 -15 45 -9 0 -15 9 -15 25 0 16 6 25 15 25 12 0 15 17 15 95 0 88 2 98 25 120 27 27 51 31 90 13z m273 -8 c124 -76 75 -273 -68 -273 -144 0 -193 197 -68 273 42 25 94 25 136 0z m-2268 -55 l0 -65 45 0 c44 0 45 1 86 65 36 57 45 65 71 65 l30 0 -17 -27 c-10 -16 -29 -44 -42 -63 -12 -19 -23 -38 -23 -42 0 -3 13 -20 29 -36 38 -38 48 -89 26 -135 -27 -58 -56 -71 -165 -71 l-95 -1 -3 188 -2 187 30 0 30 0 0 -65z m700 -50 l0 -115 35 0 c31 0 35 -3 35 -25 0 -22 -4 -25 -35 -25 -38 0 -44 -13 -22 -45 11 -13 22 -17 44 -12 25 5 32 2 36 -14 3 -12 -1 -23 -13 -29 -50 -27 -115 7 -126 65 -4 25 -11 35 -25 35 -26 0 -25 40 1 47 19 5 20 14 20 119 l0 114 25 0 25 0 0 -115z m520 25 c0 -100 13 -125 70 -137 23 -4 30 -11 30 -29 0 -31 -36 -33 -74 -3 l-26 20 0 -20 c0 -16 -6 -21 -25 -21 l-25 0 0 140 0 140 25 0 c25 0 25 -1 25 -90z m220 -260 c0 -36 -2 -40 -25 -40 -22 0 -25 4 -25 40 0 36 3 40 25 40 23 0 25 -4 25 -40z"/>
 <path d="M1210 1995 c0 -28 47 -65 80 -65 31 0 90 45 90 69 0 7 -31 11 -85 11 -70 0 -85 -3 -85 -15z"/>
 <path d="M1740 1995 c0 -27 47 -65 79 -65 32 0 91 43 91 66 0 11 -18 14 -85 14 -70 0 -85 -3 -85 -15z"/>
 <path d="M3034 2118 c-76 -36 -54 -169 29 -176 53 -5 87 31 87 92 0 37 -5 48 -31 70 -33 28 -51 31 -85 14z"/>
 <path d="M870 1915 l0 -75 49 0 c68 0 99 14 108 47 19 73 -8 103 -94 103 l-63 0 0 -75z"/>
 </g>

</svg>